<svg xmlns="http://www.w3.org/2000/svg" xmlns:xlink="http://www.w3.org/1999/xlink" width="500" zoomAndPan="magnify" viewBox="0 0 375 374.999991" height="500" preserveAspectRatio="xMidYMid meet" version="1.0"><defs><g/><clipPath id="6170f85ce5"><path d="M 125.007812 108 L 199 108 L 199 199 L 125.007812 199 Z M 125.007812 108 " clip-rule="nonzero"/></clipPath></defs><g clip-path="url(#6170f85ce5)"><path fill="#ac1929" d="M 191.785156 167.90625 L 181.640625 158.3125 C 181.640625 158.3125 188.710938 140.714844 191.785156 135.207031 C 193.097656 132.851562 194.671875 129.746094 195.578125 126.3125 C 195.65625 126.328125 195.738281 126.332031 195.824219 126.332031 C 197.148438 126.332031 198.222656 124.40625 198.222656 122.027344 C 198.222656 120.238281 197.617188 118.707031 196.75 118.054688 C 196.75 118.054688 195.550781 118.941406 195.472656 120.675781 C 195.472656 120.675781 195.140625 118.789062 196.652344 117.164062 C 196.394531 115.261719 195.933594 114.140625 194.796875 112.765625 C 192.78125 110.328125 189.695312 109.511719 185.007812 109.300781 C 180.613281 109.097656 177.445312 108.574219 173.726562 108.171875 C 172.445312 108.03125 172.992188 110.496094 173.335938 111.089844 C 174.03125 112.292969 175.011719 112.691406 178.511719 113.71875 C 178.511719 113.71875 175.710938 113.71875 172.847656 112.105469 C 172.199219 113.277344 171.839844 114.820312 171.714844 116.574219 C 174.011719 118.945312 173.519531 121.761719 173.519531 121.761719 C 173.402344 119.246094 171.667969 117.964844 171.667969 117.964844 C 170.734375 118.554688 170.066406 120.148438 170.066406 122.027344 C 170.066406 124.40625 171.136719 126.332031 172.460938 126.332031 C 172.589844 126.332031 172.714844 126.316406 172.835938 126.28125 C 173.871094 130.21875 175.492188 133.910156 177.304688 136.097656 C 176.34375 137.023438 175.429688 137.910156 174.578125 138.574219 C 179.957031 138.328125 184.144531 142.054688 184.144531 142.054688 C 184.144531 142.054688 176.695312 137.519531 170.929688 140.855469 C 162.941406 145.476562 154.273438 142.054688 154.273438 142.054688 C 154.273438 142.054688 162.101562 143.464844 170.398438 139.609375 C 170.574219 139.523438 170.753906 139.449219 170.929688 139.378906 C 166.585938 137.703125 162.554688 135.1875 152.058594 140.285156 C 152.058594 140.285156 149.339844 141.429688 147.78125 143.84375 C 147.78125 143.84375 148.207031 141.644531 150.582031 139.664062 C 148.5 138.925781 144.582031 138.03125 141.207031 140.085938 C 141.207031 140.085938 138.484375 141.230469 136.929688 143.644531 C 136.929688 143.644531 138.109375 140.710938 141.414062 138.574219 C 141.914062 135.585938 143.460938 128.863281 147.710938 124.734375 C 147.90625 124.542969 148.089844 124.375 148.261719 124.226562 C 146.894531 124.484375 145.789062 125.027344 145.789062 125.027344 C 148.003906 122.96875 149.988281 123.796875 151.433594 123.671875 C 153.144531 123.527344 155.195312 124.398438 156.242188 124.246094 C 157.644531 124.042969 159.851562 123.800781 160.394531 123.496094 C 161.902344 122.652344 160.871094 120.921875 159.683594 120.867188 C 158.136719 120.796875 162.53125 120.917969 162.410156 119.136719 C 162.222656 116.382812 162.53125 115.507812 161.71875 114.425781 C 161.355469 113.941406 157.648438 110.570312 156.515625 110.570312 C 153.4375 110.578125 148.75 113.457031 146.226562 114.59375 C 144.097656 115.554688 143.117188 117.492188 142.179688 119.027344 C 140.382812 121.960938 125.011719 141.128906 125.167969 146.9375 C 125.335938 153.253906 137.804688 159.757812 150.441406 155.539062 C 150.441406 155.539062 153.441406 154.140625 155.117188 152.898438 C 155.117188 152.898438 153.3125 154.992188 151.089844 156.378906 C 151.800781 157.285156 152.652344 158.464844 153.59375 159.828125 C 156.59375 163.601562 162.128906 169.492188 169.269531 172.417969 C 169.269531 172.417969 165.441406 171.9375 160.136719 169.820312 C 161.332031 171.695312 162.535156 173.597656 163.695312 175.433594 C 165.125 177.6875 166.96875 179.65625 169.148438 181.191406 C 171.015625 182.507812 173.0625 183.691406 175.261719 184.589844 C 175.261719 184.589844 172.503906 184.246094 168.429688 182.847656 C 169.667969 184.75 170.707031 186.292969 171.433594 187.257812 C 173.226562 189.648438 176.171875 191.878906 175.378906 198.902344 L 191.785156 167.90625 " fill-opacity="1" fill-rule="nonzero"/></g><path fill="#322f30" d="M 227.839844 119.027344 C 226.898438 117.492188 225.917969 115.554688 223.789062 114.59375 C 221.265625 113.457031 216.578125 110.578125 213.5 110.570312 C 212.367188 110.570312 208.660156 113.941406 208.296875 114.425781 C 207.484375 115.507812 207.796875 116.382812 207.605469 119.136719 C 207.484375 120.917969 211.878906 120.796875 210.332031 120.867188 C 209.144531 120.921875 208.113281 122.652344 209.621094 123.496094 C 210.167969 123.800781 212.371094 124.042969 213.773438 124.246094 C 214.820312 124.398438 216.871094 123.527344 218.582031 123.671875 C 220.027344 123.796875 222.011719 122.96875 224.226562 125.027344 C 224.226562 125.027344 223.121094 124.484375 221.757812 124.226562 C 221.925781 124.375 222.109375 124.542969 222.308594 124.734375 C 226.554688 128.863281 228.101562 135.585938 228.601562 138.574219 C 231.90625 140.710938 233.085938 143.644531 233.085938 143.644531 C 231.53125 141.230469 228.808594 140.085938 228.808594 140.085938 C 225.4375 138.03125 221.515625 138.925781 219.433594 139.664062 C 221.808594 141.644531 222.234375 143.84375 222.234375 143.84375 C 220.675781 141.429688 217.957031 140.285156 217.957031 140.285156 C 213.269531 138.007812 209.871094 137.25 207.15625 137.257812 L 205.066406 140.964844 C 211.925781 143.089844 217.667969 142.054688 217.667969 142.054688 C 217.667969 142.054688 211.207031 144.605469 204.296875 142.328125 L 195.917969 157.183594 L 204.746094 165.648438 L 181.234375 192.347656 C 181.234375 192.347656 198.71875 200.207031 210.703125 192.777344 C 202.660156 185.402344 201.863281 181.765625 203 177.6875 C 204.546875 172.152344 214.015625 157.519531 214.015625 157.519531 C 226.652344 161.738281 244.679688 153.253906 244.847656 146.9375 C 245.003906 141.128906 229.632812 121.960938 227.839844 119.027344 " fill-opacity="1" fill-rule="nonzero"/><g fill="#322f30" fill-opacity="1"><g transform="translate(80.144322, 241.572855)"><g><path d="M 3.171875 -28.46875 L 3.171875 0 L 10.3125 0 L 10.3125 -11.40625 L 26 -11.40625 L 26 -17.25 L 10.3125 -17.25 L 10.3125 -22.625 L 27.5 -22.625 L 27.5 -28.46875 Z M 3.171875 -28.46875 "/></g></g></g><g fill="#322f30" fill-opacity="1"><g transform="translate(110.57809, 241.572855)"><g><path d="M 10.4375 -28.46875 L 3.296875 -28.46875 L 3.296875 0 L 10.4375 0 Z M 10.4375 -28.46875 "/></g></g></g><g fill="#322f30" fill-opacity="1"><g transform="translate(126.265599, 241.572855)"><g><path d="M -0.234375 -28.46875 L -0.234375 -22.625 L 9.53125 -22.625 L 9.53125 0 L 16.671875 0 L 16.671875 -22.625 L 26.4375 -22.625 L 26.4375 -28.46875 Z M -0.234375 -28.46875 "/></g></g></g><g fill="#322f30" fill-opacity="1"><g transform="translate(154.424686, 241.572855)"><g><path d="M 3.171875 -28.46875 L 3.171875 0 L 10.046875 0 L 10.046875 -20.28125 L 24.390625 0 L 33.0625 0 L 33.0625 -28.46875 L 26.203125 -28.46875 L 26.203125 -8.390625 L 11.96875 -28.46875 Z M 3.171875 -28.46875 "/></g></g></g><g fill="#322f30" fill-opacity="1"><g transform="translate(192.62378, 241.572855)"><g><path d="M 3.171875 -28.46875 L 3.171875 0 L 28.46875 0 L 28.46875 -5.84375 L 10.3125 -5.84375 L 10.3125 -12.046875 L 26.46875 -12.046875 L 26.46875 -17.890625 L 10.3125 -17.890625 L 10.3125 -22.625 L 28.46875 -22.625 L 28.46875 -28.46875 Z M 3.171875 -28.46875 "/></g></g></g><g fill="#322f30" fill-opacity="1"><g transform="translate(225.175373, 241.572855)"><g><path d="M 30.59375 -19.734375 C 30.59375 -25.6875 25.484375 -29.21875 16.390625 -29.21875 C 7.796875 -29.21875 2.671875 -25.09375 2.671875 -19.765625 C 2.671875 -14.9375 6.203125 -12.515625 13.453125 -11.765625 L 18.46875 -11.25 C 22.3125 -10.859375 24.078125 -10.359375 24.078125 -8.15625 C 24.078125 -5.96875 21.8125 -4.671875 17.5625 -4.671875 C 12.078125 -4.671875 9.25 -6.390625 9.296875 -9.84375 L 2 -9.84375 C 2 -2.75 7.09375 0.75 16.703125 0.75 C 26.703125 0.75 31.84375 -2.703125 31.84375 -8.9375 C 31.84375 -13.96875 28.390625 -16.515625 21.25 -17.296875 L 15.96875 -17.84375 C 11.890625 -18.28125 10.203125 -18.59375 10.203125 -20.703125 C 10.203125 -22.703125 12.390625 -23.96875 16.515625 -23.96875 C 20.859375 -23.96875 23.171875 -22.546875 23.484375 -19.734375 Z M 30.59375 -19.734375 "/></g></g></g><g fill="#322f30" fill-opacity="1"><g transform="translate(260.982126, 241.572855)"><g><path d="M 30.59375 -19.734375 C 30.59375 -25.6875 25.484375 -29.21875 16.390625 -29.21875 C 7.796875 -29.21875 2.671875 -25.09375 2.671875 -19.765625 C 2.671875 -14.9375 6.203125 -12.515625 13.453125 -11.765625 L 18.46875 -11.25 C 22.3125 -10.859375 24.078125 -10.359375 24.078125 -8.15625 C 24.078125 -5.96875 21.8125 -4.671875 17.5625 -4.671875 C 12.078125 -4.671875 9.25 -6.390625 9.296875 -9.84375 L 2 -9.84375 C 2 -2.75 7.09375 0.75 16.703125 0.75 C 26.703125 0.75 31.84375 -2.703125 31.84375 -8.9375 C 31.84375 -13.96875 28.390625 -16.515625 21.25 -17.296875 L 15.96875 -17.84375 C 11.890625 -18.28125 10.203125 -18.59375 10.203125 -20.703125 C 10.203125 -22.703125 12.390625 -23.96875 16.515625 -23.96875 C 20.859375 -23.96875 23.171875 -22.546875 23.484375 -19.734375 Z M 30.59375 -19.734375 "/></g></g></g><g fill="#ac1929" fill-opacity="1"><g transform="translate(104.983823, 264.595688)"><g><path d="M 5.96875 -5.34375 C 6.03125 -5.34375 6.0625 -5.304688 6.0625 -5.234375 L 6.0625 -0.09375 C 6.0625 -0.03125 6.03125 0 5.96875 0 L 5.53125 0 C 5.457031 0 5.421875 -0.03125 5.421875 -0.09375 L 5.421875 -2.375 L 1.515625 -2.375 L 1.515625 -0.09375 C 1.515625 -0.03125 1.476562 0 1.40625 0 L 0.96875 0 C 0.90625 0 0.875 -0.03125 0.875 -0.09375 L 0.875 -5.234375 C 0.875 -5.304688 0.90625 -5.34375 0.96875 -5.34375 L 1.40625 -5.34375 C 1.476562 -5.34375 1.515625 -5.304688 1.515625 -5.234375 L 1.515625 -2.984375 L 5.421875 -2.984375 L 5.421875 -5.234375 C 5.421875 -5.304688 5.457031 -5.34375 5.53125 -5.34375 Z M 5.96875 -5.34375 "/></g></g></g><g fill="#ac1929" fill-opacity="1"><g transform="translate(116.361687, 264.595688)"><g><path d="M 5.3125 -0.5625 C 5.375 -0.5625 5.40625 -0.53125 5.40625 -0.46875 L 5.40625 -0.09375 C 5.40625 -0.03125 5.375 0 5.3125 0 L 0.96875 0 C 0.90625 0 0.875 -0.03125 0.875 -0.09375 L 0.875 -5.234375 C 0.875 -5.304688 0.90625 -5.34375 0.96875 -5.34375 L 5.234375 -5.34375 C 5.296875 -5.34375 5.328125 -5.304688 5.328125 -5.234375 L 5.328125 -4.875 C 5.328125 -4.800781 5.296875 -4.765625 5.234375 -4.765625 L 1.515625 -4.765625 L 1.515625 -2.96875 L 4.375 -2.96875 C 4.445312 -2.96875 4.484375 -2.9375 4.484375 -2.875 L 4.484375 -2.515625 C 4.484375 -2.441406 4.445312 -2.40625 4.375 -2.40625 L 1.515625 -2.40625 L 1.515625 -0.5625 Z M 5.3125 -0.5625 "/></g></g></g><g fill="#ac1929" fill-opacity="1"><g transform="translate(126.671922, 264.595688)"><g><path d="M 5.78125 -0.15625 L 5.796875 -0.09375 C 5.796875 -0.03125 5.753906 0 5.671875 0 L 5.28125 0 C 5.238281 0 5.203125 -0.00390625 5.171875 -0.015625 C 5.148438 -0.0351562 5.132812 -0.0664062 5.125 -0.109375 L 4.515625 -1.359375 L 1.265625 -1.359375 L 0.640625 -0.109375 C 0.617188 -0.0351562 0.566406 0 0.484375 0 L 0.078125 0 C 0.015625 0 -0.015625 -0.03125 -0.015625 -0.09375 C -0.015625 -0.101562 -0.0078125 -0.125 0 -0.15625 L 2.484375 -5.234375 C 2.503906 -5.273438 2.523438 -5.300781 2.546875 -5.3125 C 2.566406 -5.332031 2.597656 -5.34375 2.640625 -5.34375 L 3.125 -5.34375 C 3.15625 -5.34375 3.179688 -5.332031 3.203125 -5.3125 C 3.234375 -5.300781 3.257812 -5.273438 3.28125 -5.234375 Z M 2.90625 -4.65625 L 2.859375 -4.65625 L 2.21875 -3.328125 L 1.546875 -1.9375 L 4.21875 -1.9375 L 3.546875 -3.328125 Z M 2.90625 -4.65625 "/></g></g></g><g fill="#ac1929" fill-opacity="1"><g transform="translate(136.883017, 264.595688)"><g><path d="M 0.96875 0 C 0.90625 0 0.875 -0.03125 0.875 -0.09375 L 0.875 -5.234375 C 0.875 -5.304688 0.90625 -5.34375 0.96875 -5.34375 L 1.40625 -5.34375 C 1.476562 -5.34375 1.515625 -5.304688 1.515625 -5.234375 L 1.515625 -0.609375 L 5.078125 -0.609375 C 5.140625 -0.609375 5.171875 -0.570312 5.171875 -0.5 L 5.171875 -0.09375 C 5.171875 -0.03125 5.140625 0 5.078125 0 Z M 0.96875 0 "/></g></g></g><g fill="#ac1929" fill-opacity="1"><g transform="translate(146.689939, 264.595688)"><g><path d="M 5.359375 -5.34375 C 5.421875 -5.34375 5.453125 -5.304688 5.453125 -5.234375 L 5.453125 -4.828125 C 5.453125 -4.765625 5.421875 -4.734375 5.359375 -4.734375 L 3.125 -4.734375 L 3.125 -0.09375 C 3.125 -0.03125 3.09375 0 3.03125 0 L 2.59375 0 C 2.53125 0 2.5 -0.03125 2.5 -0.09375 L 2.5 -4.734375 L 0.265625 -4.734375 C 0.203125 -4.734375 0.171875 -4.765625 0.171875 -4.828125 L 0.171875 -5.234375 C 0.171875 -5.304688 0.203125 -5.34375 0.265625 -5.34375 Z M 5.359375 -5.34375 "/></g></g></g><g fill="#ac1929" fill-opacity="1"><g transform="translate(156.748513, 264.595688)"><g><path d="M 5.96875 -5.34375 C 6.03125 -5.34375 6.0625 -5.304688 6.0625 -5.234375 L 6.0625 -0.09375 C 6.0625 -0.03125 6.03125 0 5.96875 0 L 5.53125 0 C 5.457031 0 5.421875 -0.03125 5.421875 -0.09375 L 5.421875 -2.375 L 1.515625 -2.375 L 1.515625 -0.09375 C 1.515625 -0.03125 1.476562 0 1.40625 0 L 0.96875 0 C 0.90625 0 0.875 -0.03125 0.875 -0.09375 L 0.875 -5.234375 C 0.875 -5.304688 0.90625 -5.34375 0.96875 -5.34375 L 1.40625 -5.34375 C 1.476562 -5.34375 1.515625 -5.304688 1.515625 -5.234375 L 1.515625 -2.984375 L 5.421875 -2.984375 L 5.421875 -5.234375 C 5.421875 -5.304688 5.457031 -5.34375 5.53125 -5.34375 Z M 5.96875 -5.34375 "/></g></g></g><g fill="#ac1929" fill-opacity="1"><g transform="translate(168.126377, 264.595688)"><g><path d="M 2.453125 0 C 2.378906 0 2.34375 -0.03125 2.34375 -0.09375 L 2.34375 -2.203125 L -0.0625 -5.171875 C -0.0820312 -5.191406 -0.09375 -5.21875 -0.09375 -5.25 C -0.09375 -5.3125 -0.0546875 -5.34375 0.015625 -5.34375 L 0.453125 -5.34375 C 0.535156 -5.34375 0.597656 -5.3125 0.640625 -5.25 L 2.03125 -3.53125 L 2.65625 -2.78125 L 2.6875 -2.78125 L 4.6875 -5.25 C 4.71875 -5.28125 4.742188 -5.300781 4.765625 -5.3125 C 4.796875 -5.332031 4.832031 -5.34375 4.875 -5.34375 L 5.328125 -5.34375 C 5.398438 -5.34375 5.4375 -5.3125 5.4375 -5.25 C 5.4375 -5.226562 5.425781 -5.203125 5.40625 -5.171875 L 2.984375 -2.203125 L 2.984375 -0.09375 C 2.984375 -0.03125 2.953125 0 2.890625 0 Z M 2.453125 0 "/></g></g></g><g fill="#ac1929" fill-opacity="1"><g transform="translate(177.895172, 264.595688)"><g/></g></g><g fill="#ac1929" fill-opacity="1"><g transform="translate(184.415312, 264.595688)"><g><path d="M 0.96875 0 C 0.90625 0 0.875 -0.03125 0.875 -0.09375 L 0.875 -5.234375 C 0.875 -5.304688 0.90625 -5.34375 0.96875 -5.34375 L 1.40625 -5.34375 C 1.476562 -5.34375 1.515625 -5.304688 1.515625 -5.234375 L 1.515625 -0.609375 L 5.078125 -0.609375 C 5.140625 -0.609375 5.171875 -0.570312 5.171875 -0.5 L 5.171875 -0.09375 C 5.171875 -0.03125 5.140625 0 5.078125 0 Z M 0.96875 0 "/></g></g></g><g fill="#ac1929" fill-opacity="1"><g transform="translate(194.222229, 264.595688)"><g><path d="M 2.8125 -4.765625 L 2.8125 -0.5625 L 4.390625 -0.5625 C 4.453125 -0.5625 4.484375 -0.53125 4.484375 -0.46875 L 4.484375 -0.09375 C 4.484375 -0.03125 4.453125 0 4.390625 0 L 0.59375 0 C 0.53125 0 0.5 -0.03125 0.5 -0.09375 L 0.5 -0.46875 C 0.5 -0.53125 0.53125 -0.5625 0.59375 -0.5625 L 2.171875 -0.5625 L 2.171875 -4.765625 L 0.59375 -4.765625 C 0.53125 -4.765625 0.5 -4.800781 0.5 -4.875 L 0.5 -5.234375 C 0.5 -5.304688 0.53125 -5.34375 0.59375 -5.34375 L 4.390625 -5.34375 C 4.453125 -5.34375 4.484375 -5.304688 4.484375 -5.234375 L 4.484375 -4.875 C 4.484375 -4.800781 4.453125 -4.765625 4.390625 -4.765625 Z M 2.8125 -4.765625 "/></g></g></g><g fill="#ac1929" fill-opacity="1"><g transform="translate(203.632595, 264.595688)"><g><path d="M 5.0625 -5.34375 C 5.125 -5.34375 5.15625 -5.304688 5.15625 -5.234375 L 5.15625 -4.859375 C 5.15625 -4.796875 5.125 -4.765625 5.0625 -4.765625 L 1.515625 -4.765625 L 1.515625 -2.890625 L 4.1875 -2.890625 C 4.257812 -2.890625 4.296875 -2.859375 4.296875 -2.796875 L 4.296875 -2.421875 C 4.296875 -2.347656 4.257812 -2.3125 4.1875 -2.3125 L 1.515625 -2.3125 L 1.515625 -0.09375 C 1.515625 -0.03125 1.476562 0 1.40625 0 L 0.96875 0 C 0.90625 0 0.875 -0.03125 0.875 -0.09375 L 0.875 -5.234375 C 0.875 -5.304688 0.90625 -5.34375 0.96875 -5.34375 Z M 5.0625 -5.34375 "/></g></g></g><g fill="#ac1929" fill-opacity="1"><g transform="translate(213.470019, 264.595688)"><g><path d="M 5.3125 -0.5625 C 5.375 -0.5625 5.40625 -0.53125 5.40625 -0.46875 L 5.40625 -0.09375 C 5.40625 -0.03125 5.375 0 5.3125 0 L 0.96875 0 C 0.90625 0 0.875 -0.03125 0.875 -0.09375 L 0.875 -5.234375 C 0.875 -5.304688 0.90625 -5.34375 0.96875 -5.34375 L 5.234375 -5.34375 C 5.296875 -5.34375 5.328125 -5.304688 5.328125 -5.234375 L 5.328125 -4.875 C 5.328125 -4.800781 5.296875 -4.765625 5.234375 -4.765625 L 1.515625 -4.765625 L 1.515625 -2.96875 L 4.375 -2.96875 C 4.445312 -2.96875 4.484375 -2.9375 4.484375 -2.875 L 4.484375 -2.515625 C 4.484375 -2.441406 4.445312 -2.40625 4.375 -2.40625 L 1.515625 -2.40625 L 1.515625 -0.5625 Z M 5.3125 -0.5625 "/></g></g></g><g fill="#ac1929" fill-opacity="1"><g transform="translate(223.780259, 264.595688)"><g><path d="M 1.953125 0.015625 C 1.523438 0.015625 1.210938 -0.078125 1.015625 -0.265625 C 0.816406 -0.460938 0.71875 -0.78125 0.71875 -1.21875 L 0.71875 -1.5625 C 0.71875 -1.625 0.753906 -1.65625 0.828125 -1.65625 L 1.265625 -1.65625 C 1.328125 -1.65625 1.359375 -1.625 1.359375 -1.5625 L 1.359375 -1.21875 C 1.359375 -0.988281 1.410156 -0.816406 1.515625 -0.703125 C 1.628906 -0.597656 1.800781 -0.546875 2.03125 -0.546875 L 4.359375 -0.546875 C 4.585938 -0.546875 4.753906 -0.597656 4.859375 -0.703125 C 4.972656 -0.816406 5.03125 -0.988281 5.03125 -1.21875 L 5.03125 -1.703125 C 5.03125 -1.929688 4.972656 -2.097656 4.859375 -2.203125 C 4.753906 -2.316406 4.585938 -2.375 4.359375 -2.375 L 2.0625 -2.375 C 1.632812 -2.375 1.320312 -2.46875 1.125 -2.65625 C 0.9375 -2.851562 0.84375 -3.164062 0.84375 -3.59375 L 0.84375 -4.125 C 0.84375 -4.5625 0.9375 -4.875 1.125 -5.0625 C 1.320312 -5.257812 1.632812 -5.359375 2.0625 -5.359375 L 4.15625 -5.359375 C 4.59375 -5.359375 4.910156 -5.257812 5.109375 -5.0625 C 5.304688 -4.875 5.40625 -4.5625 5.40625 -4.125 L 5.40625 -3.8125 C 5.40625 -3.738281 5.367188 -3.703125 5.296875 -3.703125 L 4.859375 -3.703125 C 4.796875 -3.703125 4.765625 -3.738281 4.765625 -3.8125 L 4.765625 -4.125 C 4.765625 -4.351562 4.707031 -4.519531 4.59375 -4.625 C 4.488281 -4.738281 4.320312 -4.796875 4.09375 -4.796875 L 2.140625 -4.796875 C 1.910156 -4.796875 1.742188 -4.738281 1.640625 -4.625 C 1.535156 -4.519531 1.484375 -4.351562 1.484375 -4.125 L 1.484375 -3.609375 C 1.484375 -3.367188 1.535156 -3.195312 1.640625 -3.09375 C 1.742188 -2.988281 1.910156 -2.9375 2.140625 -2.9375 L 4.4375 -2.9375 C 4.863281 -2.9375 5.175781 -2.835938 5.375 -2.640625 C 5.570312 -2.453125 5.671875 -2.140625 5.671875 -1.703125 L 5.671875 -1.21875 C 5.671875 -0.78125 5.570312 -0.460938 5.375 -0.265625 C 5.175781 -0.078125 4.863281 0.015625 4.4375 0.015625 Z M 1.953125 0.015625 "/></g></g></g><g fill="#ac1929" fill-opacity="1"><g transform="translate(234.494672, 264.595688)"><g><path d="M 5.359375 -5.34375 C 5.421875 -5.34375 5.453125 -5.304688 5.453125 -5.234375 L 5.453125 -4.828125 C 5.453125 -4.765625 5.421875 -4.734375 5.359375 -4.734375 L 3.125 -4.734375 L 3.125 -0.09375 C 3.125 -0.03125 3.09375 0 3.03125 0 L 2.59375 0 C 2.53125 0 2.5 -0.03125 2.5 -0.09375 L 2.5 -4.734375 L 0.265625 -4.734375 C 0.203125 -4.734375 0.171875 -4.765625 0.171875 -4.828125 L 0.171875 -5.234375 C 0.171875 -5.304688 0.203125 -5.34375 0.265625 -5.34375 Z M 5.359375 -5.34375 "/></g></g></g><g fill="#ac1929" fill-opacity="1"><g transform="translate(244.553241, 264.595688)"><g><path d="M 2.453125 0 C 2.378906 0 2.34375 -0.03125 2.34375 -0.09375 L 2.34375 -2.203125 L -0.0625 -5.171875 C -0.0820312 -5.191406 -0.09375 -5.21875 -0.09375 -5.25 C -0.09375 -5.3125 -0.0546875 -5.34375 0.015625 -5.34375 L 0.453125 -5.34375 C 0.535156 -5.34375 0.597656 -5.3125 0.640625 -5.25 L 2.03125 -3.53125 L 2.65625 -2.78125 L 2.6875 -2.78125 L 4.6875 -5.25 C 4.71875 -5.28125 4.742188 -5.300781 4.765625 -5.3125 C 4.796875 -5.332031 4.832031 -5.34375 4.875 -5.34375 L 5.328125 -5.34375 C 5.398438 -5.34375 5.4375 -5.3125 5.4375 -5.25 C 5.4375 -5.226562 5.425781 -5.203125 5.40625 -5.171875 L 2.984375 -2.203125 L 2.984375 -0.09375 C 2.984375 -0.03125 2.953125 0 2.890625 0 Z M 2.453125 0 "/></g></g></g><g fill="#ac1929" fill-opacity="1"><g transform="translate(254.322031, 264.595688)"><g><path d="M 0.96875 0 C 0.90625 0 0.875 -0.03125 0.875 -0.09375 L 0.875 -5.234375 C 0.875 -5.304688 0.90625 -5.34375 0.96875 -5.34375 L 1.40625 -5.34375 C 1.476562 -5.34375 1.515625 -5.304688 1.515625 -5.234375 L 1.515625 -0.609375 L 5.078125 -0.609375 C 5.140625 -0.609375 5.171875 -0.570312 5.171875 -0.5 L 5.171875 -0.09375 C 5.171875 -0.03125 5.140625 0 5.078125 0 Z M 0.96875 0 "/></g></g></g><g fill="#ac1929" fill-opacity="1"><g transform="translate(264.128948, 264.595688)"><g><path d="M 5.3125 -0.5625 C 5.375 -0.5625 5.40625 -0.53125 5.40625 -0.46875 L 5.40625 -0.09375 C 5.40625 -0.03125 5.375 0 5.3125 0 L 0.96875 0 C 0.90625 0 0.875 -0.03125 0.875 -0.09375 L 0.875 -5.234375 C 0.875 -5.304688 0.90625 -5.34375 0.96875 -5.34375 L 5.234375 -5.34375 C 5.296875 -5.34375 5.328125 -5.304688 5.328125 -5.234375 L 5.328125 -4.875 C 5.328125 -4.800781 5.296875 -4.765625 5.234375 -4.765625 L 1.515625 -4.765625 L 1.515625 -2.96875 L 4.375 -2.96875 C 4.445312 -2.96875 4.484375 -2.9375 4.484375 -2.875 L 4.484375 -2.515625 C 4.484375 -2.441406 4.445312 -2.40625 4.375 -2.40625 L 1.515625 -2.40625 L 1.515625 -0.5625 Z M 5.3125 -0.5625 "/></g></g></g></svg>